<?xml version="1.0" encoding="UTF-8"?>
<svg width="164px" height="36px" viewBox="0 0 164 36" version="1.1" xmlns="http://www.w3.org/2000/svg" xmlns:xlink="http://www.w3.org/1999/xlink">
    <title>logo</title>
    <desc>Created with Sketch.</desc>
    <defs></defs>
    <g id="Symbols" stroke="none" stroke-width="1" fill="none" fill-rule="evenodd">
        <g id="nav-wide" transform="translate(-60.000000, -27.000000)" fill="#FF583E">
            <g id="logo" transform="translate(60.000000, 27.000000)">
                <path d="M109.257418,8.40944516 L108.637265,8.40944516 C108.279515,8.40944516 107.987268,8.70131613 107.987268,9.05899355 L107.987268,9.67950968 C107.987268,9.69267097 107.989981,9.70621935 107.991144,9.71976774 L107.991144,27.0342194 C107.991144,28.5768 107.41479,29.9610581 106.405104,30.8370581 C105.476038,31.6805419 104.667127,31.9805419 101.979153,31.9805419 L96.5373153,31.9805419 C93.8671713,31.9805419 92.981516,31.7571871 92.0249308,30.8370581 C91.0431519,29.9417032 90.5233866,28.5810581 90.5233866,26.8979613 L90.5233866,26.8522839 L90.5276502,26.8522839 L90.5276502,15.6984774 C90.5276502,12.4956387 89.7226147,10.632929 87.8315373,9.46970323 C86.6551855,8.78725161 84.9745723,8.37963871 83.3373697,8.37963871 L77.0261554,8.37963871 L77.0261554,0.817316129 L77.0215043,0.817316129 L77.0215043,0.736412903 C77.0215043,0.374864516 76.7253815,0.0787354839 76.3622047,0.0787354839 L75.7327499,0.0787354839 C75.3687979,0.0787354839 75.0722875,0.374864516 75.0722875,0.736412903 L75.0722875,0.817316129 L75.0672488,0.817316129 L75.0672488,8.37963871 L64.310704,8.37963871 C62.6723386,8.37963871 60.9928882,8.78802581 59.8099473,9.47357419 C57.9246838,10.6368 57.1204235,12.4987355 57.1204235,15.6992516 L57.1204235,32.5971871 L57.1204235,32.7648 L57.1204235,33.2308645 C57.1204235,33.5951226 57.4192595,33.8928 57.7835991,33.8928 L58.4165422,33.8928 C58.781657,33.8928 59.0797178,33.5951226 59.0797178,33.2308645 L59.0797178,32.5971871 C59.0797178,32.5909935 59.0781674,32.5840258 59.0781674,32.5778323 L59.0781674,15.6992516 C59.0781674,12.0938323 60.6979281,10.3410581 64.0304726,10.3410581 L75.0672488,10.3410581 L75.0672488,26.5789935 C75.0672488,29.7795097 75.8711214,31.6395097 77.7590981,32.8035097 C78.9269228,33.4851871 80.6063732,33.8928 82.2497773,33.8928 L82.7877596,33.8928 L82.7877596,33.8877677 C82.8040386,33.888929 82.8203176,33.8928 82.838147,33.8928 L83.4710901,33.8928 C83.8354297,33.8928 84.1342657,33.5951226 84.1342657,33.2308645 L84.1342657,32.5971871 C84.1342657,32.2321548 83.8354297,31.9348645 83.4710901,31.9348645 L82.838147,31.9348645 C82.8203176,31.9348645 82.8040386,31.9387355 82.7877596,31.9398968 L82.7877596,31.9344774 L81.9726467,31.9344774 C78.645141,31.9344774 77.0261554,30.1824774 77.0261554,26.5789935 L77.0261554,10.3410581 L83.6183763,10.3410581 C86.9466572,10.3410581 88.5656428,12.0938323 88.5656428,15.6984774 L88.5656428,26.9448 C88.5656428,29.2724129 89.1799813,30.8370581 90.6214482,32.1775742 C92.145473,33.5560258 93.3063209,33.8924129 96.5373153,33.8924129 L101.979153,33.8924129 C105.297744,33.8924129 106.403941,33.5711226 107.898896,32.1756387 C109.306255,30.8614452 109.907028,29.2983484 109.907028,26.9440258 L109.907028,9.67950968 L109.907028,9.42092903 L109.907028,9.05899355 C109.907028,8.70131613 109.614781,8.40944516 109.257418,8.40944516" id="Fill-1"></path>
                <path d="M146.021995,27.2645419 C146.021995,30.3938323 144.466575,31.9805419 141.398371,31.9805419 L133.641038,31.9805419 C132.496469,31.9805419 131.152677,31.4858323 130.12865,30.6864774 C129.10191,29.9177032 128.788345,29.096671 128.788345,27.1755097 L128.788345,23.4411871 C128.788345,20.4779613 130.595315,18.6357677 133.504217,18.6357677 L146.021995,18.6392516 L146.021995,27.2645419 Z M161.65759,14.520929 L158.443649,14.5217032 C157.59094,14.5217032 156.893268,15.2180903 156.893268,16.0700903 L156.893268,16.7277677 L147.937104,16.7277677 L147.937104,15.6090581 C147.937104,13.3747355 147.359199,11.6668645 146.173932,10.3921548 C144.803395,8.83060645 143.453013,8.37963871 140.149926,8.37963871 L120.782952,8.37963871 C119.144587,8.37963871 117.464361,8.78725161 116.28297,9.47357419 C114.400032,10.6348645 113.596935,12.4964129 113.596935,15.6984774 L113.596935,32.5964129 L113.596935,32.8731871 L113.596935,33.2308645 C113.596935,33.5943484 113.895383,33.8924129 114.259723,33.8924129 L114.893054,33.8924129 C115.257781,33.8924129 115.556229,33.5943484 115.556229,33.2308645 L115.556229,32.5964129 C115.556229,32.5902194 115.554291,32.5840258 115.554291,32.5774452 L115.554291,15.6984774 C115.554291,12.0938323 117.172502,10.340671 120.501558,10.340671 L140.891396,10.340671 C143.005728,10.340671 144.020453,10.7153806 144.915798,11.8259613 C145.689438,12.7739613 146.064631,13.9042839 146.064631,15.2811871 L146.064631,16.7242839 L133.641038,16.7242839 C129.500358,16.7242839 126.825175,19.376671 126.825175,23.4837677 L126.825175,27.3106065 C126.825175,31.2473806 129.601908,33.8924129 133.734449,33.8924129 L141.351859,33.8924129 C143.599137,33.8924129 145.170836,33.2583484 146.448738,31.8334452 C147.575477,30.5180903 147.937104,29.3188645 147.937104,26.8979613 L147.937104,18.6392516 L156.893268,18.6392516 L156.893268,19.0197677 C156.893268,19.8713806 157.59094,20.5681548 158.443649,20.5681548 L161.65759,20.5673806 C162.510299,20.5673806 163.207971,19.8709935 163.207971,19.0189935 L163.207971,16.0693161 C163.207971,15.2177032 162.510299,14.520929 161.65759,14.520929 L161.65759,14.520929 Z" id="Fill-3"></path>
                <path d="M51.5666479,27.2645419 C51.5666479,30.3938323 50.00929,31.9813161 46.9395352,31.9813161 L39.1860788,31.9813161 C38.0403471,31.9813161 36.693841,31.4858323 35.6686515,30.6868645 C34.6415239,29.9142194 34.3287345,29.0935742 34.3287345,27.1755097 L34.3287345,23.4411871 C34.3287345,20.4783484 36.136479,18.636929 39.0449941,18.636929 L51.5666479,18.636929 L51.5666479,27.2645419 Z M45.689928,8.37963871 L16.3846224,8.37963871 C14.2373444,8.37963871 12.9319234,8.67189677 11.8776642,9.38725161 C10.4040269,10.3666065 9.37573655,12.2978323 9.37573655,14.0858323 L9.37573655,15.6992516 C9.37573655,19.8802839 11.8416179,22.0004129 16.7047761,22.0004129 L22.5648295,22.0004129 C24.0659861,22.0004129 25.1016407,22.3255742 25.7264444,22.9902194 C26.4086121,23.7562839 26.5020226,23.9800258 26.5942702,26.1218323 L26.6369057,27.3620903 L26.6369057,27.6814452 C26.6369057,30.6152516 25.2555161,31.9813161 22.2876988,31.9813161 L6.38156285,31.9813161 L6.38156285,31.3573161 C6.38156285,30.5057032 5.6838913,29.808929 4.83118164,29.808929 L1.6172414,29.8093161 C0.764919328,29.8093161 0.0668601896,30.5060903 0.0668601896,31.3577032 L0.0668601896,34.3073806 C0.0668601896,35.1593806 0.764919328,35.8557677 1.6172414,35.8557677 L4.83118164,35.8553806 C5.6838913,35.8553806 6.38156285,35.1589935 6.38156285,34.3069935 L6.38156285,33.8928 L22.2404122,33.8928 C24.8702463,33.8928 25.9950479,33.4724129 27.260159,32.0118968 C28.2586045,30.7724129 28.5965876,29.5983484 28.5965876,27.3620903 L28.5965876,26.1140903 C28.5965876,22.1095742 26.5202395,19.9027355 22.752038,19.9027355 L16.7047761,19.9027355 C14.2450963,19.9027355 13.5090529,19.7238968 12.5493669,18.8935742 C11.6664248,18.1778323 11.3385192,17.2991226 11.3385192,15.6512516 L11.3385192,14.0386065 C11.3385192,12.8637677 11.895106,11.7857032 12.8652571,11.0808 C13.8148655,10.3890581 13.9450976,10.3368 16.4272579,10.3368 L32.4601375,10.3368 L32.4601375,10.3410581 L46.4313978,10.3410581 C48.5484433,10.3410581 49.5651058,10.7153806 50.460451,11.8263484 C51.2340912,12.7724129 51.6088958,13.9023484 51.6088958,15.2811871 L51.6088958,16.7242839 L39.1860788,16.7242839 C35.0461734,16.7242839 32.370603,19.3770581 32.370603,23.4837677 L32.370603,27.3113806 C32.370603,31.2477677 35.1457854,33.8928 39.2756133,33.8928 L46.8930238,33.8928 C49.1383634,33.8928 50.7108375,33.2591226 51.993778,31.8334452 C53.1178043,30.5227355 53.4790432,29.3238968 53.4790432,26.8979613 L53.4790432,15.6094452 C53.4790432,13.3747355 52.8995882,11.6672516 51.7143218,10.3921548 C50.340684,8.83138065 48.9895268,8.37963871 45.689928,8.37963871 L45.689928,8.37963871 Z" id="Fill-5"></path>
            </g>
        </g>
    </g>
</svg>